<svg width="12" height="23" viewBox="0 0 12 23" fill="none" xmlns="http://www.w3.org/2000/svg">
<path id="Vector" fill-rule="evenodd" clip-rule="evenodd" d="M0.251753 22.531C0.171951 22.4514 0.108636 22.3568 0.0654361 22.2527C0.0222361 22.1486 0 22.037 0 21.9243C0 21.8115 0.0222361 21.6999 0.0654361 21.5958C0.108636 21.4917 0.171951 21.3972 0.251753 21.3176L8 11.9696L0.251753 1.96473C0.17208 1.88505 0.108879 1.79047 0.0657606 1.68637C0.0226417 1.58227 0.000448657 1.4707 0.000448657 1.35802C0.000448657 1.24535 0.0226417 1.13378 0.0657606 1.02968C0.108879 0.925577 0.17208 0.830992 0.251753 0.751318C0.331426 0.671644 0.426012 0.608444 0.53011 0.565325C0.634208 0.522205 0.745781 0.500013 0.858456 0.500013C0.971131 0.500013 1.0827 0.522205 1.1868 0.565325C1.2909 0.608444 1.38548 0.671644 1.46516 0.751318L11.7482 11.0344C11.828 11.114 11.8914 11.2086 11.9346 11.3127C11.9778 11.4168 12 11.5284 12 11.6411C12 11.7539 11.9778 11.8655 11.9346 11.9696C11.8914 12.0737 11.828 12.1682 11.7482 12.2478L1.46516 22.531C1.38556 22.6108 1.29099 22.6741 1.18689 22.7173C1.08278 22.7605 0.971171 22.7827 0.858456 22.7827C0.74574 22.7827 0.634132 22.7605 0.530024 22.7173C0.425917 22.6741 0.331354 22.6108 0.251753 22.531Z" fill="white"/>
</svg>
