<svg width="115" height="25" viewBox="0 0 115 25" fill="none" xmlns="http://www.w3.org/2000/svg">
<g id="Logo">
<path id="Vector" d="M96.6473 24.1806H95.0214L104.124 0.819336H105.898L115 24.1806H113.374L105.072 2.65584H104.949L96.6473 24.1806ZM98.9506 15.3859H111.071V16.7091H98.9506V15.3859Z" fill="#463F3A"/>
<path id="Vector_2" d="M91.9862 24.1806V0.819336H90.4465V14.3821H90.2741L76.9714 0.819336H74.9268L85.8768 11.8726L75.0253 24.1806H76.9468L86.8622 12.8992L90.4465 16.5722V24.1806H91.9862Z" fill="#463F3A"/>
<path id="Vector_3" d="M56.3298 24.1806V0.819336H57.8695V14.3821H58.0419L71.3445 0.819336H73.3892L62.4392 11.8726L73.2907 24.1806H71.3692L61.4538 12.8992L57.8695 16.5722V24.1806H56.3298Z" fill="#463F3A"/>
<path id="Vector_4" d="M50.3129 12.5C50.3129 14.9106 49.8613 17.0171 48.958 18.8194C48.0548 20.6141 46.7984 22.0095 45.189 23.0057C43.5877 24.0019 41.7401 24.5 39.6462 24.5C37.544 24.5 35.6882 24.0019 34.0788 23.0057C32.4776 22.0019 31.2253 20.6027 30.322 18.808C29.4188 17.0057 28.9671 14.903 28.9671 12.5C28.9671 10.0894 29.4188 7.98669 30.322 6.19201C31.2335 4.39734 32.4899 3.0019 34.0911 2.0057C35.6924 1.0019 37.544 0.5 39.6462 0.5C41.7401 0.5 43.5877 0.998099 45.189 1.9943C46.7984 2.99049 48.0548 4.38973 48.958 6.19201C49.8613 7.98669 50.3129 10.0894 50.3129 12.5ZM48.8102 12.5C48.8102 10.3327 48.4161 8.45437 47.6278 6.86502C46.8477 5.27567 45.7679 4.04753 44.3883 3.18061C43.0088 2.30608 41.4281 1.86882 39.6462 1.86882C37.8643 1.86882 36.2836 2.30228 34.904 3.1692C33.5245 4.02852 32.4406 5.25665 31.6523 6.85361C30.8722 8.44297 30.4822 10.3251 30.4822 12.5C30.4822 14.6521 30.8681 16.5266 31.64 18.1236C32.4201 19.7129 33.4999 20.9449 34.8794 21.8194C36.2589 22.6939 37.8479 23.1312 39.6462 23.1312C41.4281 23.1312 43.0088 22.6977 44.3883 21.8308C45.7679 20.9563 46.8477 19.7243 47.6278 18.135C48.4161 16.5456 48.8102 14.6673 48.8102 12.5Z" fill="#463F3A"/>
<path id="Vector_5" d="M0 0.819336H1.67515L11.3935 22.1273H11.5659L21.2842 0.819336H22.9594V24.1806H21.4813V4.20717H21.3335L12.2064 24.1806H10.753L1.62588 4.20717H1.47807V24.1806H0V0.819336Z" fill="#463F3A"/>
</g>
</svg>
