<svg width="78" height="69" viewBox="0 0 78 69" fill="none" xmlns="http://www.w3.org/2000/svg">
<path d="M54.2672 11.2012L66.4255 23.3594C66.9377 23.8717 66.9377 24.7074 66.4255 25.2196L36.9869 54.6581L24.4782 56.0465C22.8068 56.2352 21.3915 54.8199 21.5802 53.1485L22.9686 40.6398L52.4071 11.2012C52.9193 10.689 53.755 10.689 54.2672 11.2012ZM76.1035 8.11448L69.5257 1.53663C67.4769 -0.51221 64.1475 -0.51221 62.0852 1.53663L57.3135 6.30826C56.8013 6.82047 56.8013 7.65618 57.3135 8.16839L69.4718 20.3266C69.984 20.8388 70.8197 20.8388 71.3319 20.3266L76.1035 15.555C78.1524 13.4927 78.1524 10.1633 76.1035 8.11448ZM51.7601 46.6515V60.3733H8.62669V17.2399H39.6019C40.0332 17.2399 40.4376 17.0647 40.7476 16.7681L46.1393 11.3764C47.1637 10.352 46.4358 8.61321 44.9936 8.61321H6.47002C2.89803 8.61321 0 11.5112 0 15.0832V62.53C0 66.102 2.89803 69 6.47002 69H53.9168C57.4888 69 60.3868 66.102 60.3868 62.53V41.2598C60.3868 39.8175 58.648 39.1031 57.6236 40.1141L52.2319 45.5058C51.9353 45.8158 51.7601 46.2202 51.7601 46.6515Z" fill="black"/>
</svg>
