<svg width="34" height="34" viewBox="0 0 34 34" fill="none" xmlns="http://www.w3.org/2000/svg">
<g id="Konto">
<g id="Tlo">
<circle cx="17" cy="17" r="15" fill="#8CC084" fill-opacity="0.7"/>
<circle cx="17" cy="17" r="16" stroke="#8CC084" stroke-opacity="0.9" stroke-width="2"/>
</g>
<path id="Vector" d="M17.0893 17.0892C18.3325 17.0892 19.5248 16.5954 20.4039 15.7163C21.2829 14.8372 21.7768 13.6449 21.7768 12.4017C21.7768 11.1585 21.2829 9.96625 20.4039 9.08717C19.5248 8.20809 18.3325 7.71423 17.0893 7.71423C15.8461 7.71423 14.6538 8.20809 13.7747 9.08717C12.8956 9.96625 12.4018 11.1585 12.4018 12.4017C12.4018 13.6449 12.8956 14.8372 13.7747 15.7163C14.6538 16.5954 15.8461 17.0892 17.0893 17.0892ZM20.2143 12.4017C20.2143 13.2305 19.885 14.0254 19.299 14.6114C18.7129 15.1975 17.9181 15.5267 17.0893 15.5267C16.2605 15.5267 15.4656 15.1975 14.8796 14.6114C14.2935 14.0254 13.9643 13.2305 13.9643 12.4017C13.9643 11.5729 14.2935 10.7781 14.8796 10.192C15.4656 9.60597 16.2605 9.27673 17.0893 9.27673C17.9181 9.27673 18.7129 9.60597 19.299 10.192C19.885 10.7781 20.2143 11.5729 20.2143 12.4017ZM26.4643 24.9017C26.4643 26.4642 24.9018 26.4642 24.9018 26.4642H9.27679C9.27679 26.4642 7.71429 26.4642 7.71429 24.9017C7.71429 23.3392 9.27679 18.6517 17.0893 18.6517C24.9018 18.6517 26.4643 23.3392 26.4643 24.9017ZM24.9018 24.8955C24.9002 24.5111 24.6612 23.3549 23.6018 22.2955C22.583 21.2767 20.6658 20.2142 17.0893 20.2142C13.5112 20.2142 11.5955 21.2767 10.5768 22.2955C9.51741 23.3549 9.27991 24.5111 9.27679 24.8955H24.9018Z" fill="black"/>
</g>
</svg>
