<svg width="34" height="34" viewBox="0 0 34 34" fill="none" xmlns="http://www.w3.org/2000/svg">
<g id="Koszyk">
<g id="Tlo">
<circle cx="17" cy="17" r="15" fill="#8CC084" fill-opacity="0.7"/>
<circle cx="17" cy="17" r="16" stroke="#8CC084" stroke-opacity="0.9" stroke-width="2"/>
</g>
<path id="Vector" d="M7.90279 8.18054C7.90279 8.01478 7.96864 7.85581 8.08586 7.7386C8.20307 7.62139 8.36204 7.55554 8.52781 7.55554H10.4028C10.5423 7.55558 10.6777 7.60223 10.7875 7.68807C10.8974 7.77392 10.9754 7.89402 11.0091 8.02929L11.5154 10.0555H26.0282C26.1206 10.0556 26.2119 10.0762 26.2954 10.1157C26.3789 10.1553 26.4526 10.2129 26.5112 10.2844C26.5698 10.3559 26.6118 10.4395 26.6342 10.5292C26.6566 10.6189 26.6588 10.7124 26.6407 10.803L25.3906 17.053C25.3633 17.1893 25.2913 17.3126 25.186 17.4034C25.0808 17.4942 24.9482 17.5473 24.8094 17.5543L13.0629 18.1443L13.4217 20.0555H24.1531C24.3189 20.0555 24.4779 20.1214 24.5951 20.2386C24.7123 20.3558 24.7781 20.5148 24.7781 20.6805C24.7781 20.8463 24.7123 21.0053 24.5951 21.1225C24.4779 21.2397 24.3189 21.3055 24.1531 21.3055H12.9029C12.7572 21.3054 12.6161 21.2544 12.504 21.1612C12.392 21.0681 12.3159 20.9388 12.2891 20.7955L10.4153 10.8143L9.91533 8.80554H8.52781C8.36204 8.80554 8.20307 8.73969 8.08586 8.62248C7.96864 8.50527 7.90279 8.3463 7.90279 8.18054ZM11.7804 11.3055L12.8304 16.9043L24.2606 16.3305L25.2656 11.3055H11.7804ZM14.1529 21.3055C13.4899 21.3055 12.854 21.5689 12.3851 22.0378C11.9163 22.5066 11.6529 23.1425 11.6529 23.8055C11.6529 24.4686 11.9163 25.1045 12.3851 25.5733C12.854 26.0421 13.4899 26.3055 14.1529 26.3055C14.816 26.3055 15.4519 26.0421 15.9207 25.5733C16.3896 25.1045 16.653 24.4686 16.653 23.8055C16.653 23.1425 16.3896 22.5066 15.9207 22.0378C15.4519 21.5689 14.816 21.3055 14.1529 21.3055ZM22.9031 21.3055C22.24 21.3055 21.6041 21.5689 21.1353 22.0378C20.6664 22.5066 20.403 23.1425 20.403 23.8055C20.403 24.4686 20.6664 25.1045 21.1353 25.5733C21.6041 26.0421 22.24 26.3055 22.9031 26.3055C23.5662 26.3055 24.202 26.0421 24.6709 25.5733C25.1397 25.1045 25.4031 24.4686 25.4031 23.8055C25.4031 23.1425 25.1397 22.5066 24.6709 22.0378C24.202 21.5689 23.5662 21.3055 22.9031 21.3055ZM14.1529 22.5555C14.4844 22.5555 14.8024 22.6872 15.0368 22.9217C15.2712 23.1561 15.4029 23.474 15.4029 23.8055C15.4029 24.1371 15.2712 24.455 15.0368 24.6894C14.8024 24.9238 14.4844 25.0555 14.1529 25.0555C13.8214 25.0555 13.5034 24.9238 13.269 24.6894C13.0346 24.455 12.9029 24.1371 12.9029 23.8055C12.9029 23.474 13.0346 23.1561 13.269 22.9217C13.5034 22.6872 13.8214 22.5555 14.1529 22.5555ZM22.9031 22.5555C23.2346 22.5555 23.5526 22.6872 23.787 22.9217C24.0214 23.1561 24.1531 23.474 24.1531 23.8055C24.1531 24.1371 24.0214 24.455 23.787 24.6894C23.5526 24.9238 23.2346 25.0555 22.9031 25.0555C22.5716 25.0555 22.2536 24.9238 22.0192 24.6894C21.7848 24.455 21.6531 24.1371 21.6531 23.8055C21.6531 23.474 21.7848 23.1561 22.0192 22.9217C22.2536 22.6872 22.5716 22.5555 22.9031 22.5555Z" fill="black"/>
</g>
</svg>
