<svg width="61" height="69" viewBox="0 0 61 69" fill="none" xmlns="http://www.w3.org/2000/svg">
<path d="M4.3125 62.5313C4.3125 64.2469 4.99403 65.8922 6.20715 67.1053C7.42028 68.3185 9.06563 69 10.7812 69H49.5937C51.3093 69 52.9547 68.3185 54.1678 67.1053C55.381 65.8922 56.0625 64.2469 56.0625 62.5313V17.25H4.3125V62.5313ZM40.9687 28.0313C40.9687 27.4594 41.1959 26.9109 41.6003 26.5066C42.0047 26.1022 42.5531 25.875 43.125 25.875C43.6969 25.875 44.2453 26.1022 44.6497 26.5066C45.0541 26.9109 45.2812 27.4594 45.2812 28.0313V58.2188C45.2812 58.7906 45.0541 59.3391 44.6497 59.7435C44.2453 60.1478 43.6969 60.375 43.125 60.375C42.5531 60.375 42.0047 60.1478 41.6003 59.7435C41.1959 59.3391 40.9687 58.7906 40.9687 58.2188V28.0313ZM28.0312 28.0313C28.0312 27.4594 28.2584 26.9109 28.6628 26.5066C29.0672 26.1022 29.6156 25.875 30.1875 25.875C30.7594 25.875 31.3078 26.1022 31.7122 26.5066C32.1166 26.9109 32.3437 27.4594 32.3437 28.0313V58.2188C32.3437 58.7906 32.1166 59.3391 31.7122 59.7435C31.3078 60.1478 30.7594 60.375 30.1875 60.375C29.6156 60.375 29.0672 60.1478 28.6628 59.7435C28.2584 59.3391 28.0312 58.7906 28.0312 58.2188V28.0313ZM15.0937 28.0313C15.0937 27.4594 15.3209 26.9109 15.7253 26.5066C16.1297 26.1022 16.6781 25.875 17.25 25.875C17.8219 25.875 18.3703 26.1022 18.7747 26.5066C19.1791 26.9109 19.4062 27.4594 19.4062 28.0313V58.2188C19.4062 58.7906 19.1791 59.3391 18.7747 59.7435C18.3703 60.1478 17.8219 60.375 17.25 60.375C16.6781 60.375 16.1297 60.1478 15.7253 59.7435C15.3209 59.3391 15.0937 58.7906 15.0937 58.2188V28.0313ZM58.2187 4.31252H42.0469L40.7801 1.79241C40.5117 1.25363 40.0983 0.800427 39.5865 0.483776C39.0746 0.167125 38.4845 -0.000408065 37.8826 2.36281e-05H22.4789C21.8784 -0.00228498 21.2893 0.164624 20.7792 0.481627C20.2692 0.79863 19.8587 1.25291 19.5949 1.79241L18.3281 4.31252H2.15625C1.58438 4.31252 1.03593 4.5397 0.631551 4.94407C0.227176 5.34845 0 5.8969 0 6.46877L0 10.7813C0 11.3531 0.227176 11.9016 0.631551 12.306C1.03593 12.7103 1.58438 12.9375 2.15625 12.9375H58.2187C58.7906 12.9375 59.3391 12.7103 59.7434 12.306C60.1478 11.9016 60.375 11.3531 60.375 10.7813V6.46877C60.375 5.8969 60.1478 5.34845 59.7434 4.94407C59.3391 4.5397 58.7906 4.31252 58.2187 4.31252Z" fill="black"/>
</svg>
