<svg width="34" height="34" viewBox="0 0 34 34" fill="none" xmlns="http://www.w3.org/2000/svg">
<g id="Konto">
<g id="Tlo">
<circle cx="17" cy="17" r="15" fill="#8CC084" fill-opacity="0.7"/>
<circle cx="17" cy="17" r="16" stroke="#8CC084" stroke-opacity="0.9" stroke-width="2"/>
</g>
<path id="Vector" d="M22.1459 20.2219C23.4772 18.4049 24.0735 16.1522 23.8155 13.9143C23.5574 11.6765 22.4641 9.61867 20.7541 8.15248C19.0442 6.68629 16.8437 5.9199 14.5931 6.00663C12.3424 6.09337 10.2075 7.02683 8.61538 8.62027C7.0233 10.2137 6.0915 12.3496 6.00639 14.6007C5.92128 16.8517 6.68913 19.0519 8.15634 20.761C9.62354 22.4702 11.6819 23.5622 13.9196 23.8187C16.1573 24.0752 18.4093 23.4772 20.2251 22.1444H20.2237C20.2649 22.1994 20.3089 22.2516 20.3584 22.3025L25.652 27.5968C25.9098 27.8548 26.2596 27.9999 26.6243 28C26.989 28.0001 27.3389 27.8553 27.5969 27.5975C27.8549 27.3396 27.9999 26.9899 28 26.6251C28.0001 26.2603 27.8554 25.9104 27.5975 25.6524L22.304 20.3581C22.2548 20.3083 22.202 20.2637 22.1459 20.2219ZM22.5006 14.9359C22.5006 15.9291 22.305 16.9126 21.925 17.8302C21.5449 18.7478 20.9879 19.5816 20.2857 20.2839C19.5835 20.9862 18.7498 21.5433 17.8323 21.9234C16.9148 22.3035 15.9315 22.4992 14.9384 22.4992C13.9453 22.4992 12.962 22.3035 12.0445 21.9234C11.127 21.5433 10.2933 20.9862 9.5911 20.2839C8.88889 19.5816 8.33186 18.7478 7.95182 17.8302C7.57179 16.9126 7.37618 15.9291 7.37618 14.9359C7.37618 12.93 8.17291 11.0062 9.5911 9.58783C11.0093 8.16944 12.9328 7.37259 14.9384 7.37259C16.944 7.37259 18.8675 8.16944 20.2857 9.58783C21.7039 11.0062 22.5006 12.93 22.5006 14.9359Z" fill="black"/>
</g>
</svg>
