<svg width="23" height="22" viewBox="0 0 23 22" fill="none" xmlns="http://www.w3.org/2000/svg">
<path id="Vector" d="M17.113 14.2219C18.4444 12.4049 19.0407 10.1522 18.7826 7.91435C18.5246 5.67652 17.4312 3.61867 15.7212 2.15248C14.0113 0.68629 11.8109 -0.0801007 9.56019 0.0066338C7.30952 0.0933683 5.17459 1.02683 3.58251 2.62027C1.99044 4.21371 1.05863 6.34961 0.973521 8.60066C0.88841 10.8517 1.65627 13.0519 3.12347 14.761C4.59068 16.4702 6.64903 17.5622 8.88672 17.8187C11.1244 18.0752 13.3764 17.4772 15.1922 16.1444H15.1908C15.2321 16.1994 15.2761 16.2516 15.3256 16.3025L20.6191 21.5968C20.8769 21.8548 21.2267 21.9999 21.5914 22C21.9562 22.0001 22.306 21.8553 22.564 21.5975C22.822 21.3396 22.967 20.9899 22.9671 20.6251C22.9673 20.2603 22.8225 19.9104 22.5647 19.6524L17.2711 14.3581C17.222 14.3083 17.1691 14.2637 17.113 14.2219ZM17.4677 8.93587C17.4677 9.9291 17.2721 10.9126 16.8921 11.8302C16.5121 12.7478 15.955 13.5816 15.2528 14.2839C14.5506 14.9862 13.717 15.5433 12.7995 15.9234C11.882 16.3035 10.8986 16.4992 9.90553 16.4992C8.91245 16.4992 7.92909 16.3035 7.0116 15.9234C6.09411 15.5433 5.26045 14.9862 4.55824 14.2839C3.85602 13.5816 3.29899 12.7478 2.91895 11.8302C2.53892 10.9126 2.34332 9.9291 2.34332 8.93587C2.34332 6.92997 3.14005 5.00622 4.55824 3.58783C5.97643 2.16944 7.89991 1.37259 9.90553 1.37259C11.9112 1.37259 13.8346 2.16944 15.2528 3.58783C16.671 5.00622 17.4677 6.92997 17.4677 8.93587Z" fill="#3D5D39"/>
</svg>
