<svg width="13" height="23" viewBox="0 0 13 23" fill="none" xmlns="http://www.w3.org/2000/svg">
<path id="Vector" fill-rule="evenodd" clip-rule="evenodd" d="M1.18767 22.3896C1.10786 22.31 1.04455 22.2154 1.00135 22.1113C0.958149 22.0072 0.935913 21.8956 0.935913 21.7829C0.935913 21.6702 0.958149 21.5586 1.00135 21.4545C1.04455 21.3504 1.10786 21.2558 1.18767 21.1762L10.8658 11.4998L1.18767 1.82337C1.10799 1.7437 1.04479 1.64911 1.00167 1.54501C0.958555 1.44091 0.936362 1.32934 0.936362 1.21667C0.936362 1.10399 0.958555 0.992416 1.00167 0.888319C1.04479 0.78422 1.10799 0.689634 1.18767 0.609961C1.26734 0.530287 1.36193 0.467087 1.46602 0.423967C1.57012 0.380848 1.68169 0.358656 1.79437 0.358656C1.90704 0.358656 2.01862 0.380848 2.12271 0.423967C2.22681 0.467087 2.3214 0.530287 2.40107 0.609961L12.6842 10.8931C12.764 10.9727 12.8273 11.0672 12.8705 11.1714C12.9137 11.2755 12.9359 11.3871 12.9359 11.4998C12.9359 11.6125 12.9137 11.7241 12.8705 11.8282C12.8273 11.9323 12.764 12.0269 12.6842 12.1065L2.40107 22.3896C2.32147 22.4694 2.22691 22.5327 2.1228 22.5759C2.01869 22.6191 1.90708 22.6414 1.79437 22.6414C1.68165 22.6414 1.57005 22.6191 1.46594 22.5759C1.36183 22.5327 1.26727 22.4694 1.18767 22.3896Z" fill="#463F3A"/>
</svg>
