<svg width="36" height="42" viewBox="0 0 36 42" fill="none" xmlns="http://www.w3.org/2000/svg">
<path d="M35.308 4.92359C36.3673 3.64859 36.1986 1.75484 34.9236 0.695465C33.6486 -0.36391 31.7548 -0.19516 30.6955 1.07984L18.0017 16.3142L5.30796 1.07984C4.24859 -0.19516 2.35484 -0.36391 1.07984 0.695465C-0.19516 1.75484 -0.36391 3.64859 0.695465 4.92359L14.0923 21.0017L0.695465 37.0798C-0.36391 38.3548 -0.19516 40.2486 1.07984 41.308C2.35484 42.3673 4.24859 42.1986 5.30796 40.9236L18.0017 25.6892L30.6955 40.9236C31.7548 42.1986 33.6486 42.3673 34.9236 41.308C36.1986 40.2486 36.3673 38.3548 35.308 37.0798L21.9111 21.0017L35.308 4.92359Z" fill="#463F3A"/>
</svg>
